<mxfile host="app.diagrams.net" agent="Mozilla/5.0 (Windows NT 10.0; Win64; x64) AppleWebKit/537.36 (KHTML, like Gecko) Chrome/130.0.0.0 Safari/537.36" version="24.8.3">
  <diagram name="Page-1" id="fWWnP7KjWhj3hoe-2kkr">
    <mxGraphModel dx="1221" dy="1738" grid="1" gridSize="10" guides="1" tooltips="1" connect="1" arrows="1" fold="1" page="1" pageScale="1" pageWidth="850" pageHeight="1100" math="0" shadow="0">
      <root>
        <mxCell id="0" />
        <mxCell id="1" parent="0" />
        <mxCell id="0KvPCGB-JMUwxrYX1keu-20" style="edgeStyle=orthogonalEdgeStyle;rounded=0;orthogonalLoop=1;jettySize=auto;html=1;entryX=0;entryY=1;entryDx=0;entryDy=0;curved=1;exitX=1;exitY=0.137;exitDx=0;exitDy=0;exitPerimeter=0;" parent="1" source="0KvPCGB-JMUwxrYX1keu-1" target="QSYXt_AazOxYKCm_Hhit-3" edge="1">
          <mxGeometry relative="1" as="geometry">
            <mxPoint x="375" y="60" as="targetPoint" />
          </mxGeometry>
        </mxCell>
        <mxCell id="QSYXt_AazOxYKCm_Hhit-2" style="edgeStyle=orthogonalEdgeStyle;rounded=0;orthogonalLoop=1;jettySize=auto;html=1;curved=1;" parent="1" source="0KvPCGB-JMUwxrYX1keu-1" target="QSYXt_AazOxYKCm_Hhit-4" edge="1">
          <mxGeometry relative="1" as="geometry">
            <mxPoint x="380.03999999999996" y="80" as="targetPoint" />
            <Array as="points">
              <mxPoint x="130" y="-50" />
              <mxPoint x="543" y="-50" />
            </Array>
          </mxGeometry>
        </mxCell>
        <mxCell id="0KvPCGB-JMUwxrYX1keu-1" value="User" style="rounded=0;whiteSpace=wrap;html=1;" parent="1" vertex="1">
          <mxGeometry x="70" y="200" width="120" height="60" as="geometry" />
        </mxCell>
        <mxCell id="0KvPCGB-JMUwxrYX1keu-21" style="edgeStyle=orthogonalEdgeStyle;rounded=0;orthogonalLoop=1;jettySize=auto;html=1;entryX=0.675;entryY=1.007;entryDx=0;entryDy=0;curved=1;entryPerimeter=0;" parent="1" source="0KvPCGB-JMUwxrYX1keu-2" target="QSYXt_AazOxYKCm_Hhit-4" edge="1">
          <mxGeometry relative="1" as="geometry">
            <mxPoint x="495" y="60" as="targetPoint" />
          </mxGeometry>
        </mxCell>
        <mxCell id="A-aXEpD3uiSMtbvOrzPp-7" style="edgeStyle=orthogonalEdgeStyle;rounded=0;orthogonalLoop=1;jettySize=auto;html=1;curved=1;exitX=0.192;exitY=1.039;exitDx=0;exitDy=0;exitPerimeter=0;" parent="1" source="0KvPCGB-JMUwxrYX1keu-2" target="A-aXEpD3uiSMtbvOrzPp-5" edge="1">
          <mxGeometry relative="1" as="geometry">
            <Array as="points">
              <mxPoint x="703" y="300" />
              <mxPoint x="650" y="300" />
              <mxPoint x="650" y="260" />
            </Array>
          </mxGeometry>
        </mxCell>
        <mxCell id="0KvPCGB-JMUwxrYX1keu-2" value="Admin" style="rounded=0;whiteSpace=wrap;html=1;" parent="1" vertex="1">
          <mxGeometry x="680" y="200" width="120" height="60" as="geometry" />
        </mxCell>
        <mxCell id="0KvPCGB-JMUwxrYX1keu-13" style="edgeStyle=orthogonalEdgeStyle;rounded=0;orthogonalLoop=1;jettySize=auto;html=1;entryX=0.5;entryY=0;entryDx=0;entryDy=0;" parent="1" target="0KvPCGB-JMUwxrYX1keu-10" edge="1">
          <mxGeometry relative="1" as="geometry">
            <mxPoint x="435" y="100" as="sourcePoint" />
          </mxGeometry>
        </mxCell>
        <mxCell id="0KvPCGB-JMUwxrYX1keu-19" style="edgeStyle=orthogonalEdgeStyle;rounded=0;orthogonalLoop=1;jettySize=auto;html=1;exitX=0.917;exitY=0.214;exitDx=0;exitDy=0;exitPerimeter=0;curved=1;" parent="1" source="QSYXt_AazOxYKCm_Hhit-13" target="0KvPCGB-JMUwxrYX1keu-12" edge="1">
          <mxGeometry relative="1" as="geometry">
            <mxPoint x="495" y="520" as="sourcePoint" />
          </mxGeometry>
        </mxCell>
        <mxCell id="0KvPCGB-JMUwxrYX1keu-27" style="edgeStyle=orthogonalEdgeStyle;rounded=0;orthogonalLoop=1;jettySize=auto;html=1;entryX=0.25;entryY=1;entryDx=0;entryDy=0;curved=1;exitX=0;exitY=1;exitDx=0;exitDy=0;" parent="1" source="QSYXt_AazOxYKCm_Hhit-13" edge="1">
          <mxGeometry relative="1" as="geometry">
            <mxPoint x="392.57359312880726" y="548.2842712474619" as="sourcePoint" />
            <mxPoint x="90" y="260" as="targetPoint" />
          </mxGeometry>
        </mxCell>
        <mxCell id="0KvPCGB-JMUwxrYX1keu-14" style="edgeStyle=orthogonalEdgeStyle;rounded=0;orthogonalLoop=1;jettySize=auto;html=1;exitX=0.5;exitY=1;exitDx=0;exitDy=0;entryX=0.5;entryY=0;entryDx=0;entryDy=0;" parent="1" source="0KvPCGB-JMUwxrYX1keu-10" target="QSYXt_AazOxYKCm_Hhit-9" edge="1">
          <mxGeometry relative="1" as="geometry">
            <mxPoint x="435" y="260" as="targetPoint" />
          </mxGeometry>
        </mxCell>
        <mxCell id="0KvPCGB-JMUwxrYX1keu-10" value="Users DB" style="shape=partialRectangle;whiteSpace=wrap;html=1;left=0;right=0;fillColor=none;" parent="1" vertex="1">
          <mxGeometry x="382.5" y="180" width="105" height="40" as="geometry" />
        </mxCell>
        <mxCell id="0KvPCGB-JMUwxrYX1keu-17" style="edgeStyle=orthogonalEdgeStyle;rounded=0;orthogonalLoop=1;jettySize=auto;html=1;entryX=0.5;entryY=0;entryDx=0;entryDy=0;" parent="1" source="0KvPCGB-JMUwxrYX1keu-11" edge="1">
          <mxGeometry relative="1" as="geometry">
            <mxPoint x="435" y="480" as="targetPoint" />
          </mxGeometry>
        </mxCell>
        <mxCell id="0KvPCGB-JMUwxrYX1keu-11" value="Health Metrics&lt;div&gt;DB&lt;/div&gt;" style="shape=partialRectangle;whiteSpace=wrap;html=1;left=0;right=0;fillColor=none;" parent="1" vertex="1">
          <mxGeometry x="387.5" y="390" width="95" height="40" as="geometry" />
        </mxCell>
        <mxCell id="0KvPCGB-JMUwxrYX1keu-18" style="edgeStyle=orthogonalEdgeStyle;rounded=0;orthogonalLoop=1;jettySize=auto;html=1;curved=1;exitX=0;exitY=0.75;exitDx=0;exitDy=0;" parent="1" source="0KvPCGB-JMUwxrYX1keu-12" target="QSYXt_AazOxYKCm_Hhit-13" edge="1">
          <mxGeometry relative="1" as="geometry">
            <mxPoint x="500" y="520" as="targetPoint" />
          </mxGeometry>
        </mxCell>
        <mxCell id="0KvPCGB-JMUwxrYX1keu-12" value="Tips&lt;br&gt;&lt;div&gt;DB&lt;/div&gt;" style="shape=partialRectangle;whiteSpace=wrap;html=1;left=0;right=0;fillColor=none;" parent="1" vertex="1">
          <mxGeometry x="640" y="557.5" width="100" height="40" as="geometry" />
        </mxCell>
        <mxCell id="0KvPCGB-JMUwxrYX1keu-23" value="signup" style="text;html=1;align=center;verticalAlign=middle;resizable=0;points=[];autosize=1;strokeColor=none;fillColor=none;" parent="1" vertex="1">
          <mxGeometry x="240" y="120" width="60" height="30" as="geometry" />
        </mxCell>
        <mxCell id="0KvPCGB-JMUwxrYX1keu-24" value="login" style="text;html=1;align=center;verticalAlign=middle;resizable=0;points=[];autosize=1;strokeColor=none;fillColor=none;" parent="1" vertex="1">
          <mxGeometry x="580" y="140" width="50" height="30" as="geometry" />
        </mxCell>
        <mxCell id="0KvPCGB-JMUwxrYX1keu-26" style="edgeStyle=orthogonalEdgeStyle;rounded=0;orthogonalLoop=1;jettySize=auto;html=1;entryX=0.5;entryY=1;entryDx=0;entryDy=0;curved=1;" parent="1" source="QSYXt_AazOxYKCm_Hhit-13" target="0KvPCGB-JMUwxrYX1keu-1" edge="1">
          <mxGeometry relative="1" as="geometry">
            <mxPoint x="375" y="520" as="sourcePoint" />
          </mxGeometry>
        </mxCell>
        <mxCell id="0KvPCGB-JMUwxrYX1keu-28" value="prediction" style="text;html=1;align=center;verticalAlign=middle;resizable=0;points=[];autosize=1;strokeColor=none;fillColor=none;" parent="1" vertex="1">
          <mxGeometry x="180" y="510" width="80" height="30" as="geometry" />
        </mxCell>
        <mxCell id="0KvPCGB-JMUwxrYX1keu-29" value="tips" style="text;html=1;align=center;verticalAlign=middle;resizable=0;points=[];autosize=1;strokeColor=none;fillColor=none;" parent="1" vertex="1">
          <mxGeometry x="90" y="470" width="40" height="30" as="geometry" />
        </mxCell>
        <mxCell id="0KvPCGB-JMUwxrYX1keu-30" style="edgeStyle=orthogonalEdgeStyle;rounded=0;orthogonalLoop=1;jettySize=auto;html=1;entryX=0;entryY=0;entryDx=0;entryDy=0;curved=1;exitX=1;exitY=0.75;exitDx=0;exitDy=0;" parent="1" source="0KvPCGB-JMUwxrYX1keu-1" target="QSYXt_AazOxYKCm_Hhit-9" edge="1">
          <mxGeometry relative="1" as="geometry">
            <mxPoint x="376.44000000000005" y="316.15999999999997" as="targetPoint" />
          </mxGeometry>
        </mxCell>
        <mxCell id="0KvPCGB-JMUwxrYX1keu-31" value="heartRate, bp, respiratoryRate,&lt;div&gt;&lt;span style=&quot;background-color: initial;&quot;&gt;&amp;nbsp;glucoseLevel,&amp;nbsp;&lt;/span&gt;&lt;div&gt;&lt;div&gt;spo2, bodyTemp, height,&lt;/div&gt;&lt;div&gt;&lt;span style=&quot;background-color: initial;&quot;&gt;weight, avgSleep, age&lt;/span&gt;&lt;/div&gt;&lt;/div&gt;&lt;/div&gt;" style="text;html=1;align=center;verticalAlign=middle;resizable=0;points=[];autosize=1;strokeColor=none;fillColor=none;" parent="1" vertex="1">
          <mxGeometry x="197.5" y="220" width="190" height="70" as="geometry" />
        </mxCell>
        <mxCell id="QSYXt_AazOxYKCm_Hhit-1" value="login" style="text;html=1;align=center;verticalAlign=middle;resizable=0;points=[];autosize=1;strokeColor=none;fillColor=none;" parent="1" vertex="1">
          <mxGeometry x="180" width="50" height="30" as="geometry" />
        </mxCell>
        <mxCell id="QSYXt_AazOxYKCm_Hhit-6" style="edgeStyle=orthogonalEdgeStyle;rounded=0;orthogonalLoop=1;jettySize=auto;html=1;entryX=0;entryY=0;entryDx=0;entryDy=0;curved=1;" parent="1" source="QSYXt_AazOxYKCm_Hhit-3" target="QSYXt_AazOxYKCm_Hhit-5" edge="1">
          <mxGeometry relative="1" as="geometry" />
        </mxCell>
        <mxCell id="QSYXt_AazOxYKCm_Hhit-3" value="Register user" style="ellipse;whiteSpace=wrap;html=1;" parent="1" vertex="1">
          <mxGeometry x="305" y="-30" width="120" height="80" as="geometry" />
        </mxCell>
        <mxCell id="QSYXt_AazOxYKCm_Hhit-4" value="Login user/admin" style="ellipse;whiteSpace=wrap;html=1;" parent="1" vertex="1">
          <mxGeometry x="482.5" y="-30" width="120" height="80" as="geometry" />
        </mxCell>
        <mxCell id="QSYXt_AazOxYKCm_Hhit-5" value="Add user to DB" style="ellipse;whiteSpace=wrap;html=1;" parent="1" vertex="1">
          <mxGeometry x="382.5" y="70" width="120" height="80" as="geometry" />
        </mxCell>
        <mxCell id="QSYXt_AazOxYKCm_Hhit-7" style="edgeStyle=orthogonalEdgeStyle;rounded=0;orthogonalLoop=1;jettySize=auto;html=1;entryX=0.915;entryY=0.171;entryDx=0;entryDy=0;entryPerimeter=0;curved=1;" parent="1" source="QSYXt_AazOxYKCm_Hhit-4" target="QSYXt_AazOxYKCm_Hhit-5" edge="1">
          <mxGeometry relative="1" as="geometry" />
        </mxCell>
        <mxCell id="QSYXt_AazOxYKCm_Hhit-9" value="Input/Store Health Metrics" style="ellipse;whiteSpace=wrap;html=1;" parent="1" vertex="1">
          <mxGeometry x="375" y="260" width="120" height="80" as="geometry" />
        </mxCell>
        <mxCell id="A-aXEpD3uiSMtbvOrzPp-1" style="edgeStyle=orthogonalEdgeStyle;rounded=0;orthogonalLoop=1;jettySize=auto;html=1;entryX=0.25;entryY=0;entryDx=0;entryDy=0;curved=1;" parent="1" source="QSYXt_AazOxYKCm_Hhit-11" target="0KvPCGB-JMUwxrYX1keu-12" edge="1">
          <mxGeometry relative="1" as="geometry" />
        </mxCell>
        <mxCell id="QSYXt_AazOxYKCm_Hhit-11" value="CRUD on Tips" style="ellipse;whiteSpace=wrap;html=1;" parent="1" vertex="1">
          <mxGeometry x="610" y="430" width="120" height="80" as="geometry" />
        </mxCell>
        <mxCell id="QSYXt_AazOxYKCm_Hhit-14" style="edgeStyle=orthogonalEdgeStyle;rounded=0;orthogonalLoop=1;jettySize=auto;html=1;entryX=0.5;entryY=0;entryDx=0;entryDy=0;" parent="1" source="QSYXt_AazOxYKCm_Hhit-12" target="QSYXt_AazOxYKCm_Hhit-13" edge="1">
          <mxGeometry relative="1" as="geometry" />
        </mxCell>
        <mxCell id="QSYXt_AazOxYKCm_Hhit-12" value="Input metrics into ML model" style="ellipse;whiteSpace=wrap;html=1;" parent="1" vertex="1">
          <mxGeometry x="365" y="460" width="130" height="80" as="geometry" />
        </mxCell>
        <mxCell id="QSYXt_AazOxYKCm_Hhit-13" value="Predict using the ML model" style="ellipse;whiteSpace=wrap;html=1;" parent="1" vertex="1">
          <mxGeometry x="370" y="557.5" width="120" height="95" as="geometry" />
        </mxCell>
        <mxCell id="QSYXt_AazOxYKCm_Hhit-18" value="prediction" style="text;html=1;align=center;verticalAlign=middle;resizable=0;points=[];autosize=1;strokeColor=none;fillColor=none;" parent="1" vertex="1">
          <mxGeometry x="530" y="550" width="80" height="30" as="geometry" />
        </mxCell>
        <mxCell id="QSYXt_AazOxYKCm_Hhit-19" value="tips" style="text;html=1;align=center;verticalAlign=middle;resizable=0;points=[];autosize=1;strokeColor=none;fillColor=none;" parent="1" vertex="1">
          <mxGeometry x="562.5" y="597.5" width="40" height="30" as="geometry" />
        </mxCell>
        <mxCell id="QSYXt_AazOxYKCm_Hhit-20" value="1.1" style="text;html=1;align=center;verticalAlign=middle;resizable=0;points=[];autosize=1;strokeColor=none;fillColor=none;" parent="1" vertex="1">
          <mxGeometry x="345" y="-30" width="40" height="30" as="geometry" />
        </mxCell>
        <mxCell id="QSYXt_AazOxYKCm_Hhit-21" value="1.2" style="text;html=1;align=center;verticalAlign=middle;resizable=0;points=[];autosize=1;strokeColor=none;fillColor=none;" parent="1" vertex="1">
          <mxGeometry x="522.5" y="-30" width="40" height="30" as="geometry" />
        </mxCell>
        <mxCell id="QSYXt_AazOxYKCm_Hhit-22" value="1.3" style="text;html=1;align=center;verticalAlign=middle;resizable=0;points=[];autosize=1;strokeColor=none;fillColor=none;" parent="1" vertex="1">
          <mxGeometry x="422.5" y="70" width="40" height="30" as="geometry" />
        </mxCell>
        <mxCell id="QSYXt_AazOxYKCm_Hhit-23" value="2" style="text;html=1;align=center;verticalAlign=middle;resizable=0;points=[];autosize=1;strokeColor=none;fillColor=none;" parent="1" vertex="1">
          <mxGeometry x="420" y="260" width="30" height="30" as="geometry" />
        </mxCell>
        <mxCell id="QSYXt_AazOxYKCm_Hhit-24" value="3.1" style="text;html=1;align=center;verticalAlign=middle;resizable=0;points=[];autosize=1;strokeColor=none;fillColor=none;" parent="1" vertex="1">
          <mxGeometry x="410" y="460" width="40" height="30" as="geometry" />
        </mxCell>
        <mxCell id="QSYXt_AazOxYKCm_Hhit-26" value="3.2" style="text;html=1;align=center;verticalAlign=middle;resizable=0;points=[];autosize=1;strokeColor=none;fillColor=none;" parent="1" vertex="1">
          <mxGeometry x="410" y="560" width="40" height="30" as="geometry" />
        </mxCell>
        <mxCell id="A-aXEpD3uiSMtbvOrzPp-2" style="edgeStyle=orthogonalEdgeStyle;rounded=0;orthogonalLoop=1;jettySize=auto;html=1;entryX=0.753;entryY=0.06;entryDx=0;entryDy=0;entryPerimeter=0;curved=1;" parent="1" source="0KvPCGB-JMUwxrYX1keu-2" target="QSYXt_AazOxYKCm_Hhit-11" edge="1">
          <mxGeometry relative="1" as="geometry" />
        </mxCell>
        <mxCell id="A-aXEpD3uiSMtbvOrzPp-3" value="Content mgmt" style="text;html=1;align=center;verticalAlign=middle;resizable=0;points=[];autosize=1;strokeColor=none;fillColor=none;" parent="1" vertex="1">
          <mxGeometry x="660" y="360" width="100" height="30" as="geometry" />
        </mxCell>
        <mxCell id="A-aXEpD3uiSMtbvOrzPp-4" value="4.2" style="text;html=1;align=center;verticalAlign=middle;resizable=0;points=[];autosize=1;strokeColor=none;fillColor=none;" parent="1" vertex="1">
          <mxGeometry x="650" y="430" width="40" height="30" as="geometry" />
        </mxCell>
        <mxCell id="A-aXEpD3uiSMtbvOrzPp-6" style="edgeStyle=orthogonalEdgeStyle;rounded=0;orthogonalLoop=1;jettySize=auto;html=1;entryX=1;entryY=1;entryDx=0;entryDy=0;curved=1;" parent="1" source="A-aXEpD3uiSMtbvOrzPp-5" target="0KvPCGB-JMUwxrYX1keu-10" edge="1">
          <mxGeometry relative="1" as="geometry" />
        </mxCell>
        <mxCell id="A-aXEpD3uiSMtbvOrzPp-5" value="Update/Delete User" style="ellipse;whiteSpace=wrap;html=1;" parent="1" vertex="1">
          <mxGeometry x="510" y="220" width="120" height="80" as="geometry" />
        </mxCell>
        <mxCell id="A-aXEpD3uiSMtbvOrzPp-8" value="User mgmt" style="text;html=1;align=center;verticalAlign=middle;resizable=0;points=[];autosize=1;strokeColor=none;fillColor=none;" parent="1" vertex="1">
          <mxGeometry x="630" y="300" width="80" height="30" as="geometry" />
        </mxCell>
        <mxCell id="A-aXEpD3uiSMtbvOrzPp-9" value="4.1" style="text;html=1;align=center;verticalAlign=middle;resizable=0;points=[];autosize=1;strokeColor=none;fillColor=none;" parent="1" vertex="1">
          <mxGeometry x="550" y="220" width="40" height="30" as="geometry" />
        </mxCell>
        <mxCell id="j_vbPgo9FUm-acW-Pkyz-1" value="" style="endArrow=classic;html=1;rounded=0;exitX=0.296;exitY=0.951;exitDx=0;exitDy=0;exitPerimeter=0;entryX=0.25;entryY=0;entryDx=0;entryDy=0;" parent="1" source="QSYXt_AazOxYKCm_Hhit-9" target="0KvPCGB-JMUwxrYX1keu-11" edge="1">
          <mxGeometry width="50" height="50" relative="1" as="geometry">
            <mxPoint x="400" y="370" as="sourcePoint" />
            <mxPoint x="450" y="320" as="targetPoint" />
          </mxGeometry>
        </mxCell>
        <mxCell id="j_vbPgo9FUm-acW-Pkyz-2" value="" style="endArrow=classic;html=1;rounded=0;exitX=0.682;exitY=-0.058;exitDx=0;exitDy=0;entryX=0.637;entryY=0.996;entryDx=0;entryDy=0;entryPerimeter=0;exitPerimeter=0;" parent="1" source="0KvPCGB-JMUwxrYX1keu-11" target="QSYXt_AazOxYKCm_Hhit-9" edge="1">
          <mxGeometry width="50" height="50" relative="1" as="geometry">
            <mxPoint x="421" y="346" as="sourcePoint" />
            <mxPoint x="421" y="400" as="targetPoint" />
          </mxGeometry>
        </mxCell>
        <mxCell id="j_vbPgo9FUm-acW-Pkyz-3" style="edgeStyle=orthogonalEdgeStyle;rounded=0;orthogonalLoop=1;jettySize=auto;html=1;entryX=0.927;entryY=1.039;entryDx=0;entryDy=0;entryPerimeter=0;curved=1;exitX=0.081;exitY=0.829;exitDx=0;exitDy=0;exitPerimeter=0;" parent="1" source="QSYXt_AazOxYKCm_Hhit-9" target="0KvPCGB-JMUwxrYX1keu-1" edge="1">
          <mxGeometry relative="1" as="geometry">
            <Array as="points">
              <mxPoint x="385" y="370" />
              <mxPoint x="200" y="370" />
              <mxPoint x="200" y="290" />
              <mxPoint x="181" y="290" />
            </Array>
          </mxGeometry>
        </mxCell>
        <mxCell id="j_vbPgo9FUm-acW-Pkyz-4" value="past records" style="text;html=1;align=center;verticalAlign=middle;resizable=0;points=[];autosize=1;strokeColor=none;fillColor=none;" parent="1" vertex="1">
          <mxGeometry x="205" y="370" width="90" height="30" as="geometry" />
        </mxCell>
      </root>
    </mxGraphModel>
  </diagram>
</mxfile>
